<mxfile host="app.diagrams.net" modified="2023-12-13T19:52:33.388Z" agent="Mozilla/5.0 (Windows NT 10.0; Win64; x64) AppleWebKit/537.36 (KHTML, like Gecko) Chrome/120.0.0.0 Safari/537.36" etag="675RTwhVWa_49tzD_IMv" version="22.1.8" type="github">
  <diagram name="Page-1" id="2YBvvXClWsGukQMizWep">
    <mxGraphModel dx="1969" dy="892" grid="1" gridSize="10" guides="1" tooltips="1" connect="1" arrows="1" fold="1" page="1" pageScale="1" pageWidth="850" pageHeight="1100" math="0" shadow="0">
      <root>
        <mxCell id="0" />
        <mxCell id="1" parent="0" />
        <mxCell id="S1sIWchH1F8maFaVoo0U-31" value="User" style="shape=umlActor;verticalLabelPosition=bottom;verticalAlign=top;html=1;outlineConnect=0;" vertex="1" parent="1">
          <mxGeometry x="100" y="60" width="30" height="60" as="geometry" />
        </mxCell>
        <mxCell id="S1sIWchH1F8maFaVoo0U-32" value="" style="endArrow=none;dashed=1;html=1;rounded=0;" edge="1" parent="1" source="S1sIWchH1F8maFaVoo0U-38">
          <mxGeometry width="50" height="50" relative="1" as="geometry">
            <mxPoint x="120" y="480" as="sourcePoint" />
            <mxPoint x="115" y="140" as="targetPoint" />
          </mxGeometry>
        </mxCell>
        <mxCell id="S1sIWchH1F8maFaVoo0U-33" value="signUP-Page:sign-up" style="rounded=0;whiteSpace=wrap;html=1;" vertex="1" parent="1">
          <mxGeometry x="250" y="60" width="120" height="60" as="geometry" />
        </mxCell>
        <mxCell id="S1sIWchH1F8maFaVoo0U-34" value="" style="endArrow=none;dashed=1;html=1;rounded=0;entryX=0.5;entryY=1;entryDx=0;entryDy=0;" edge="1" parent="1" source="S1sIWchH1F8maFaVoo0U-41" target="S1sIWchH1F8maFaVoo0U-33">
          <mxGeometry width="50" height="50" relative="1" as="geometry">
            <mxPoint x="320" y="480" as="sourcePoint" />
            <mxPoint x="480" y="250" as="targetPoint" />
          </mxGeometry>
        </mxCell>
        <mxCell id="S1sIWchH1F8maFaVoo0U-35" value="authentication:&lt;br&gt;Authientication Module" style="rounded=0;whiteSpace=wrap;html=1;" vertex="1" parent="1">
          <mxGeometry x="550" y="60" width="120" height="60" as="geometry" />
        </mxCell>
        <mxCell id="S1sIWchH1F8maFaVoo0U-36" value="" style="endArrow=none;dashed=1;html=1;rounded=0;entryX=0.5;entryY=1;entryDx=0;entryDy=0;" edge="1" parent="1" source="S1sIWchH1F8maFaVoo0U-49" target="S1sIWchH1F8maFaVoo0U-35">
          <mxGeometry width="50" height="50" relative="1" as="geometry">
            <mxPoint x="620" y="480" as="sourcePoint" />
            <mxPoint x="780" y="250" as="targetPoint" />
          </mxGeometry>
        </mxCell>
        <mxCell id="S1sIWchH1F8maFaVoo0U-37" value="" style="endArrow=none;dashed=1;html=1;rounded=0;exitX=0.027;exitY=1.01;exitDx=0;exitDy=0;exitPerimeter=0;" edge="1" parent="1" source="S1sIWchH1F8maFaVoo0U-52" target="S1sIWchH1F8maFaVoo0U-38">
          <mxGeometry width="50" height="50" relative="1" as="geometry">
            <mxPoint x="115" y="570" as="sourcePoint" />
            <mxPoint x="115" y="390" as="targetPoint" />
          </mxGeometry>
        </mxCell>
        <mxCell id="S1sIWchH1F8maFaVoo0U-38" value="" style="html=1;points=[[0,0,0,0,5],[0,1,0,0,-5],[1,0,0,0,5],[1,1,0,0,-5]];perimeter=orthogonalPerimeter;outlineConnect=0;targetShapes=umlLifeline;portConstraint=eastwest;newEdgeStyle={&quot;curved&quot;:0,&quot;rounded&quot;:0};" vertex="1" parent="1">
          <mxGeometry x="105" y="200" width="20" height="220" as="geometry" />
        </mxCell>
        <mxCell id="S1sIWchH1F8maFaVoo0U-39" value="" style="endArrow=block;endFill=1;html=1;edgeStyle=orthogonalEdgeStyle;align=left;verticalAlign=top;rounded=0;exitX=1;exitY=0;exitDx=0;exitDy=5;exitPerimeter=0;entryX=0;entryY=0;entryDx=0;entryDy=5;entryPerimeter=0;" edge="1" parent="1" source="S1sIWchH1F8maFaVoo0U-38" target="S1sIWchH1F8maFaVoo0U-41">
          <mxGeometry x="-1" relative="1" as="geometry">
            <mxPoint x="380" y="280" as="sourcePoint" />
            <mxPoint x="230" y="190" as="targetPoint" />
          </mxGeometry>
        </mxCell>
        <mxCell id="S1sIWchH1F8maFaVoo0U-40" value="" style="endArrow=none;dashed=1;html=1;rounded=0;entryX=0.5;entryY=1;entryDx=0;entryDy=0;exitX=0.375;exitY=1.015;exitDx=0;exitDy=0;exitPerimeter=0;" edge="1" parent="1" source="S1sIWchH1F8maFaVoo0U-52" target="S1sIWchH1F8maFaVoo0U-41">
          <mxGeometry width="50" height="50" relative="1" as="geometry">
            <mxPoint x="310" y="570" as="sourcePoint" />
            <mxPoint x="310" y="120" as="targetPoint" />
          </mxGeometry>
        </mxCell>
        <mxCell id="S1sIWchH1F8maFaVoo0U-41" value="" style="html=1;points=[[0,0,0,0,5],[0,1,0,0,-5],[1,0,0,0,5],[1,1,0,0,-5]];perimeter=orthogonalPerimeter;outlineConnect=0;targetShapes=umlLifeline;portConstraint=eastwest;newEdgeStyle={&quot;curved&quot;:0,&quot;rounded&quot;:0};" vertex="1" parent="1">
          <mxGeometry x="300" y="200" width="20" height="220" as="geometry" />
        </mxCell>
        <mxCell id="S1sIWchH1F8maFaVoo0U-42" value="phoneNumber" style="text;html=1;align=center;verticalAlign=middle;resizable=0;points=[];autosize=1;strokeColor=none;fillColor=none;" vertex="1" parent="1">
          <mxGeometry x="150" y="178" width="100" height="30" as="geometry" />
        </mxCell>
        <mxCell id="S1sIWchH1F8maFaVoo0U-43" value="" style="endArrow=block;endFill=1;html=1;edgeStyle=orthogonalEdgeStyle;align=left;verticalAlign=top;rounded=0;exitX=1;exitY=0;exitDx=0;exitDy=5;exitPerimeter=0;entryX=0;entryY=0;entryDx=0;entryDy=5;entryPerimeter=0;" edge="1" parent="1">
          <mxGeometry x="-1" relative="1" as="geometry">
            <mxPoint x="125" y="250" as="sourcePoint" />
            <mxPoint x="300" y="250" as="targetPoint" />
          </mxGeometry>
        </mxCell>
        <mxCell id="S1sIWchH1F8maFaVoo0U-44" value="passowrd" style="text;html=1;align=center;verticalAlign=middle;resizable=0;points=[];autosize=1;strokeColor=none;fillColor=none;" vertex="1" parent="1">
          <mxGeometry x="165" y="230" width="70" height="30" as="geometry" />
        </mxCell>
        <mxCell id="S1sIWchH1F8maFaVoo0U-45" value="" style="endArrow=block;endFill=1;html=1;edgeStyle=orthogonalEdgeStyle;align=left;verticalAlign=top;rounded=0;exitX=1;exitY=0;exitDx=0;exitDy=5;exitPerimeter=0;entryX=0;entryY=0;entryDx=0;entryDy=5;entryPerimeter=0;" edge="1" parent="1">
          <mxGeometry x="-1" relative="1" as="geometry">
            <mxPoint x="125" y="290" as="sourcePoint" />
            <mxPoint x="300" y="290" as="targetPoint" />
          </mxGeometry>
        </mxCell>
        <mxCell id="S1sIWchH1F8maFaVoo0U-46" value="confirm password" style="text;html=1;align=center;verticalAlign=middle;resizable=0;points=[];autosize=1;strokeColor=none;fillColor=none;" vertex="1" parent="1">
          <mxGeometry x="140" y="270" width="120" height="30" as="geometry" />
        </mxCell>
        <mxCell id="S1sIWchH1F8maFaVoo0U-47" value="" style="endArrow=block;endFill=1;html=1;edgeStyle=orthogonalEdgeStyle;align=left;verticalAlign=top;rounded=0;exitX=1;exitY=1;exitDx=0;exitDy=-5;exitPerimeter=0;" edge="1" parent="1" source="S1sIWchH1F8maFaVoo0U-41" target="S1sIWchH1F8maFaVoo0U-49">
          <mxGeometry x="-1" relative="1" as="geometry">
            <mxPoint x="380" y="280" as="sourcePoint" />
            <mxPoint x="510" y="295" as="targetPoint" />
            <Array as="points">
              <mxPoint x="320" y="300" />
            </Array>
          </mxGeometry>
        </mxCell>
        <mxCell id="S1sIWchH1F8maFaVoo0U-48" value="" style="endArrow=none;dashed=1;html=1;rounded=0;entryX=0.5;entryY=1;entryDx=0;entryDy=0;exitX=0.911;exitY=1.01;exitDx=0;exitDy=0;exitPerimeter=0;" edge="1" parent="1" source="S1sIWchH1F8maFaVoo0U-52" target="S1sIWchH1F8maFaVoo0U-49">
          <mxGeometry width="50" height="50" relative="1" as="geometry">
            <mxPoint x="610" y="570" as="sourcePoint" />
            <mxPoint x="610" y="120" as="targetPoint" />
          </mxGeometry>
        </mxCell>
        <mxCell id="S1sIWchH1F8maFaVoo0U-49" value="" style="html=1;points=[[0,0,0,0,5],[0,1,0,0,-5],[1,0,0,0,5],[1,1,0,0,-5]];perimeter=orthogonalPerimeter;outlineConnect=0;targetShapes=umlLifeline;portConstraint=eastwest;newEdgeStyle={&quot;curved&quot;:0,&quot;rounded&quot;:0};" vertex="1" parent="1">
          <mxGeometry x="600" y="250" width="20" height="370" as="geometry" />
        </mxCell>
        <mxCell id="S1sIWchH1F8maFaVoo0U-50" value="send new user sign up info" style="text;html=1;align=center;verticalAlign=middle;resizable=0;points=[];autosize=1;strokeColor=none;fillColor=none;" vertex="1" parent="1">
          <mxGeometry x="360" y="280" width="170" height="30" as="geometry" />
        </mxCell>
        <mxCell id="S1sIWchH1F8maFaVoo0U-51" value="validate the info&lt;br&gt;checking if the phone number or email aready exist in dataBase" style="html=1;align=left;spacingLeft=2;endArrow=block;rounded=0;edgeStyle=orthogonalEdgeStyle;curved=0;rounded=0;" edge="1" parent="1">
          <mxGeometry x="0.0118" relative="1" as="geometry">
            <mxPoint x="620" y="330" as="sourcePoint" />
            <Array as="points">
              <mxPoint x="650" y="330" />
              <mxPoint x="650" y="360" />
            </Array>
            <mxPoint x="625" y="360" as="targetPoint" />
            <mxPoint as="offset" />
          </mxGeometry>
        </mxCell>
        <mxCell id="S1sIWchH1F8maFaVoo0U-52" value="frame" style="shape=umlFrame;whiteSpace=wrap;html=1;pointerEvents=0;" vertex="1" parent="1">
          <mxGeometry x="100" y="460" width="560" height="200" as="geometry" />
        </mxCell>
        <mxCell id="S1sIWchH1F8maFaVoo0U-53" value="" style="endArrow=none;dashed=1;html=1;rounded=0;exitX=0.018;exitY=0.45;exitDx=0;exitDy=0;exitPerimeter=0;entryX=1.009;entryY=0.445;entryDx=0;entryDy=0;entryPerimeter=0;" edge="1" parent="1" source="S1sIWchH1F8maFaVoo0U-52" target="S1sIWchH1F8maFaVoo0U-52">
          <mxGeometry width="50" height="50" relative="1" as="geometry">
            <mxPoint x="320" y="673" as="sourcePoint" />
            <mxPoint x="320" y="320" as="targetPoint" />
          </mxGeometry>
        </mxCell>
        <mxCell id="S1sIWchH1F8maFaVoo0U-54" value="if valid" style="text;html=1;align=center;verticalAlign=middle;resizable=0;points=[];autosize=1;strokeColor=none;fillColor=none;" vertex="1" parent="1">
          <mxGeometry x="30" y="490" width="60" height="30" as="geometry" />
        </mxCell>
        <mxCell id="S1sIWchH1F8maFaVoo0U-55" value="" style="html=1;points=[[0,0,0,0,5],[0,1,0,0,-5],[1,0,0,0,5],[1,1,0,0,-5]];perimeter=orthogonalPerimeter;outlineConnect=0;targetShapes=umlLifeline;portConstraint=eastwest;newEdgeStyle={&quot;curved&quot;:0,&quot;rounded&quot;:0};" vertex="1" parent="1">
          <mxGeometry x="300" y="460" width="20" height="90" as="geometry" />
        </mxCell>
        <mxCell id="S1sIWchH1F8maFaVoo0U-56" value="Accepted" style="html=1;verticalAlign=bottom;endArrow=open;dashed=1;endSize=8;curved=0;rounded=0;" edge="1" parent="1" target="S1sIWchH1F8maFaVoo0U-55">
          <mxGeometry relative="1" as="geometry">
            <mxPoint x="600" y="489" as="sourcePoint" />
            <mxPoint x="420" y="489" as="targetPoint" />
            <mxPoint as="offset" />
          </mxGeometry>
        </mxCell>
        <mxCell id="S1sIWchH1F8maFaVoo0U-57" value="redirect to login page" style="html=1;align=left;spacingLeft=2;endArrow=block;rounded=0;edgeStyle=orthogonalEdgeStyle;curved=0;rounded=0;" edge="1" parent="1">
          <mxGeometry x="-0.0588" y="10" relative="1" as="geometry">
            <mxPoint x="320" y="500" as="sourcePoint" />
            <Array as="points">
              <mxPoint x="350" y="500" />
              <mxPoint x="350" y="530" />
            </Array>
            <mxPoint x="325" y="530" as="targetPoint" />
            <mxPoint as="offset" />
          </mxGeometry>
        </mxCell>
        <mxCell id="S1sIWchH1F8maFaVoo0U-58" value="rejected(not correct data)" style="html=1;verticalAlign=bottom;endArrow=open;dashed=1;endSize=8;curved=0;rounded=0;" edge="1" parent="1">
          <mxGeometry relative="1" as="geometry">
            <mxPoint x="600" y="580" as="sourcePoint" />
            <mxPoint x="310" y="580" as="targetPoint" />
            <mxPoint as="offset" />
          </mxGeometry>
        </mxCell>
        <mxCell id="S1sIWchH1F8maFaVoo0U-59" value="" style="html=1;verticalAlign=bottom;endArrow=open;dashed=1;endSize=8;curved=0;rounded=0;" edge="1" parent="1">
          <mxGeometry relative="1" as="geometry">
            <mxPoint x="310" y="620" as="sourcePoint" />
            <mxPoint x="120" y="620" as="targetPoint" />
            <mxPoint as="offset" />
          </mxGeometry>
        </mxCell>
        <mxCell id="S1sIWchH1F8maFaVoo0U-60" value="and redirect again to create account page with errors&lt;br&gt;* for example already exist email or phone number&amp;nbsp;&lt;br&gt;*password and confirm passowrd not the same please try again !" style="text;html=1;align=center;verticalAlign=middle;resizable=0;points=[];autosize=1;strokeColor=none;fillColor=none;" vertex="1" parent="1">
          <mxGeometry x="270" y="590" width="370" height="60" as="geometry" />
        </mxCell>
        <mxCell id="S1sIWchH1F8maFaVoo0U-64" value="" style="endArrow=block;endFill=1;html=1;edgeStyle=orthogonalEdgeStyle;align=left;verticalAlign=top;rounded=0;" edge="1" parent="1">
          <mxGeometry x="-1" relative="1" as="geometry">
            <mxPoint x="130" y="330" as="sourcePoint" />
            <mxPoint x="290" y="330" as="targetPoint" />
            <Array as="points">
              <mxPoint x="250" y="330" />
            </Array>
          </mxGeometry>
        </mxCell>
        <mxCell id="S1sIWchH1F8maFaVoo0U-72" value="" style="edgeStyle=orthogonalEdgeStyle;rounded=0;orthogonalLoop=1;jettySize=auto;html=1;" edge="1" parent="1" source="S1sIWchH1F8maFaVoo0U-65" target="S1sIWchH1F8maFaVoo0U-71">
          <mxGeometry relative="1" as="geometry" />
        </mxCell>
        <mxCell id="S1sIWchH1F8maFaVoo0U-65" value="email" style="text;html=1;align=center;verticalAlign=middle;resizable=0;points=[];autosize=1;strokeColor=none;fillColor=none;" vertex="1" parent="1">
          <mxGeometry x="165" y="310" width="50" height="30" as="geometry" />
        </mxCell>
        <mxCell id="S1sIWchH1F8maFaVoo0U-69" value="" style="endArrow=block;endFill=1;html=1;edgeStyle=orthogonalEdgeStyle;align=left;verticalAlign=top;rounded=0;" edge="1" parent="1">
          <mxGeometry x="-1" relative="1" as="geometry">
            <mxPoint x="125" y="360" as="sourcePoint" />
            <mxPoint x="300" y="360" as="targetPoint" />
            <Array as="points">
              <mxPoint x="245" y="360" />
            </Array>
          </mxGeometry>
        </mxCell>
        <mxCell id="S1sIWchH1F8maFaVoo0U-70" value="" style="endArrow=block;endFill=1;html=1;edgeStyle=orthogonalEdgeStyle;align=left;verticalAlign=top;rounded=0;" edge="1" parent="1">
          <mxGeometry x="-1" relative="1" as="geometry">
            <mxPoint x="125" y="390" as="sourcePoint" />
            <mxPoint x="300" y="390" as="targetPoint" />
            <Array as="points">
              <mxPoint x="245" y="390" />
            </Array>
          </mxGeometry>
        </mxCell>
        <mxCell id="S1sIWchH1F8maFaVoo0U-71" value="create account Button" style="text;html=1;align=center;verticalAlign=middle;resizable=0;points=[];autosize=1;strokeColor=none;fillColor=none;" vertex="1" parent="1">
          <mxGeometry x="130" y="360" width="140" height="30" as="geometry" />
        </mxCell>
        <mxCell id="S1sIWchH1F8maFaVoo0U-73" value="first name and last name&amp;nbsp;" style="text;html=1;align=center;verticalAlign=middle;resizable=0;points=[];autosize=1;strokeColor=none;fillColor=none;" vertex="1" parent="1">
          <mxGeometry x="120" y="338" width="160" height="30" as="geometry" />
        </mxCell>
        <mxCell id="S1sIWchH1F8maFaVoo0U-74" value="add profile image if its worker" style="text;html=1;align=center;verticalAlign=middle;resizable=0;points=[];autosize=1;strokeColor=none;fillColor=none;" vertex="1" parent="1">
          <mxGeometry x="100" y="390" width="180" height="30" as="geometry" />
        </mxCell>
      </root>
    </mxGraphModel>
  </diagram>
</mxfile>
